<svg width="406" height="306" viewBox="0 0 406 306" fill="none" xmlns="http://www.w3.org/2000/svg">
<path d="M319.958 249.171H86.0414C85.9077 249.169 85.7801 249.114 85.6855 249.02C85.5908 248.925 85.5365 248.798 85.5339 248.664C85.5339 248.529 85.5874 248.4 85.6826 248.305C85.7778 248.21 85.9068 248.156 86.0414 248.156H319.958C320.093 248.156 320.222 248.21 320.317 248.305C320.412 248.4 320.466 248.529 320.466 248.664C320.463 248.798 320.409 248.925 320.314 249.02C320.22 249.114 320.092 249.169 319.958 249.171Z" fill="#D1D3D4"/>
<path d="M316.761 74.6217V215.565C316.758 218.182 315.717 220.692 313.865 222.541C312.013 224.391 309.503 225.43 306.885 225.43H99.1147C96.4972 225.43 93.9868 224.391 92.135 222.541C90.2831 220.692 89.2415 218.182 89.2388 215.565V74.6217C89.2388 73.3253 89.4943 72.0415 89.9907 70.8439C90.4872 69.6463 91.2148 68.5582 92.132 67.642C93.0492 66.7257 94.138 65.9992 95.3361 65.504C96.5343 65.0088 97.8183 64.7546 99.1147 64.7559H306.885C308.182 64.7546 309.466 65.0088 310.664 65.504C311.862 65.9992 312.951 66.7257 313.868 67.642C314.785 68.5582 315.513 69.6463 316.009 70.8439C316.506 72.0415 316.761 73.3253 316.761 74.6217Z" fill="white"/>
<path d="M306.895 225.897H99.1045C96.3667 225.892 93.7427 224.801 91.8077 222.864C89.8727 220.927 88.7847 218.302 88.782 215.565V74.6217C88.782 71.8831 89.8692 69.2564 91.8048 67.319C93.7403 65.3815 96.3659 64.2917 99.1045 64.289H306.895C309.634 64.2917 312.26 65.3815 314.195 67.319C316.131 69.2564 317.218 71.8831 317.218 74.6217V215.565C317.215 218.302 316.127 220.927 314.192 222.864C312.257 224.801 309.633 225.892 306.895 225.897ZM99.1045 65.2127C96.6117 65.218 94.2226 66.2114 92.4609 67.975C90.6991 69.7387 89.7083 72.1288 89.7056 74.6217V215.565C89.7083 218.057 90.6994 220.446 92.4615 222.208C94.2235 223.97 96.6126 224.961 99.1045 224.963H306.895C309.387 224.961 311.776 223.97 313.538 222.208C315.3 220.446 316.292 218.057 316.294 215.565V74.6217C316.292 72.1288 315.301 69.7387 313.539 67.975C311.777 66.2114 309.388 65.218 306.895 65.2127H99.1045Z" fill="#231F20"/>
<path d="M316.761 74.6217V199.771H89.2388V74.6217C89.2388 73.3253 89.4943 72.0415 89.9907 70.8439C90.4872 69.6463 91.2148 68.5582 92.132 67.642C93.0492 66.7257 94.138 65.9992 95.3361 65.504C96.5343 65.0088 97.8183 64.7546 99.1147 64.7559H306.885C308.182 64.7546 309.466 65.0088 310.664 65.504C311.862 65.9992 312.951 66.7257 313.868 67.642C314.785 68.5582 315.513 69.6463 316.009 70.8439C316.506 72.0415 316.761 73.3253 316.761 74.6217Z" fill="#231F20"/>
<path d="M304.713 76.4589H98.5869V190.464H304.713V76.4589Z" fill="white"/>
<path d="M304.713 190.931H98.587C98.5257 190.931 98.465 190.918 98.4083 190.895C98.3517 190.872 98.3002 190.837 98.2569 190.794C98.2135 190.75 98.1791 190.699 98.1557 190.642C98.1322 190.586 98.1201 190.525 98.1201 190.464V76.4588C98.1201 76.335 98.1693 76.2163 98.2569 76.1287C98.3444 76.0411 98.4632 75.9919 98.587 75.9919H304.713C304.835 75.9946 304.951 76.045 305.037 76.1322C305.122 76.2195 305.17 76.3368 305.17 76.4588V190.464C305.17 190.586 305.122 190.703 305.037 190.79C304.951 190.878 304.835 190.928 304.713 190.931ZM99.0438 189.997H304.246V76.875H99.0438V189.997Z" fill="#231F20"/>
<path d="M203 217.828C201.964 217.828 200.951 217.521 200.089 216.945C199.228 216.369 198.556 215.55 198.16 214.593C197.764 213.635 197.661 212.581 197.864 211.565C198.067 210.549 198.567 209.616 199.3 208.884C200.034 208.152 200.968 207.654 201.985 207.453C203.001 207.252 204.055 207.357 205.011 207.755C205.968 208.153 206.785 208.826 207.36 209.688C207.934 210.551 208.239 211.565 208.237 212.601C208.235 213.988 207.682 215.318 206.7 216.298C205.718 217.278 204.387 217.828 203 217.828ZM203 208.378C202.165 208.378 201.349 208.626 200.654 209.09C199.96 209.554 199.419 210.213 199.099 210.985C198.78 211.757 198.696 212.605 198.859 213.425C199.022 214.244 199.424 214.996 200.014 215.587C200.605 216.177 201.357 216.579 202.176 216.742C202.995 216.905 203.844 216.821 204.616 216.502C205.387 216.182 206.047 215.641 206.511 214.947C206.975 214.252 207.222 213.436 207.222 212.601C207.22 211.482 206.774 210.409 205.983 209.618C205.192 208.827 204.119 208.381 203 208.378Z" fill="#D1D3D4"/>
<path d="M236.119 243.335C233.43 240.128 232.973 225.451 232.973 225.451H173.027C173.027 225.451 172.57 240.128 169.881 243.335C167.191 246.542 156.615 251.77 156.615 253.627C156.615 255.485 158.188 256.165 165.831 256.165H240.169C247.812 256.165 249.385 255.485 249.385 253.627C249.385 251.77 238.819 246.522 236.119 243.335Z" fill="white"/>
<path d="M240.169 256.601H165.831C158.228 256.601 156.148 255.962 156.148 253.607C156.148 252.429 158.452 250.876 162.532 248.217C165.364 246.38 168.297 244.472 169.525 243.02C172.083 239.975 172.57 225.562 172.57 225.42C172.573 225.298 172.623 225.182 172.711 225.097C172.798 225.011 172.915 224.963 173.037 224.964H232.983C233.105 224.963 233.223 225.011 233.31 225.097C233.397 225.182 233.447 225.298 233.45 225.42C233.45 225.562 233.927 239.965 236.495 243.02C237.723 244.472 240.657 246.38 243.488 248.217C247.548 250.876 249.873 252.429 249.873 253.607C249.853 255.962 247.772 256.601 240.169 256.601ZM173.474 225.897C173.372 228.445 172.763 240.605 170.236 243.609C168.927 245.172 165.932 247.121 163.04 248.999C160.664 250.542 157.082 252.876 157.082 253.607C157.082 254.825 157.701 255.637 165.831 255.637H240.169C248.289 255.637 248.919 254.784 248.919 253.607C248.919 252.876 245.336 250.562 242.961 248.999C240.068 247.121 237.074 245.172 235.764 243.609C233.237 240.564 232.628 228.445 232.526 225.897H173.474Z" fill="#231F20"/>
<path d="M106.21 43.309H299.79C302.27 43.309 304.647 44.2939 306.401 46.047C308.154 47.8001 309.139 50.1778 309.139 52.6571V56.575H96.8513V52.6571C96.8513 51.4286 97.0935 50.2122 97.5639 49.0774C98.0343 47.9426 98.7238 46.9116 99.5929 46.0434C100.462 45.1752 101.494 44.4868 102.629 44.0176C103.764 43.5484 104.981 43.3076 106.21 43.309Z" fill="#4C58BE"/>
<path d="M309.149 57.0013H96.8513C96.7414 56.9921 96.6382 56.9442 96.5602 56.8662C96.4821 56.7881 96.4343 56.685 96.425 56.575V52.6571C96.4277 50.0548 97.4627 47.5599 99.3028 45.7198C101.143 43.8797 103.638 42.8447 106.24 42.842H299.79C302.387 42.8528 304.875 43.8913 306.708 45.7305C308.542 47.5697 309.572 50.0601 309.575 52.6571V56.575C309.566 56.685 309.518 56.7881 309.44 56.8662C309.362 56.9442 309.259 56.9921 309.149 57.0013ZM97.3182 56.0675H308.682V52.6571C308.679 50.2998 307.742 48.0398 306.075 46.3729C304.408 44.706 302.148 43.7684 299.79 43.7657H106.21C103.852 43.7684 101.592 44.706 99.9254 46.3729C98.2586 48.0398 97.3209 50.2998 97.3182 52.6571V56.0675Z" fill="#231F20"/>
<path d="M264.286 160.105H141.714C141.58 160.105 141.451 160.051 141.355 159.956C141.26 159.861 141.207 159.732 141.207 159.597V121.088C141.207 120.954 141.26 120.825 141.355 120.73C141.451 120.634 141.58 120.581 141.714 120.581H264.286C264.42 120.581 264.549 120.634 264.645 120.73C264.74 120.825 264.793 120.954 264.793 121.088V159.597C264.793 159.732 264.74 159.861 264.645 159.956C264.549 160.051 264.42 160.105 264.286 160.105ZM142.222 159.09H263.778V121.596H142.222V159.09Z" fill="#D1D3D4"/>
<path d="M264.286 189.682C264.151 189.682 264.022 189.629 263.927 189.533C263.832 189.438 263.778 189.309 263.778 189.175V165.028H142.222V189.175C142.222 189.309 142.168 189.438 142.073 189.533C141.978 189.629 141.849 189.682 141.714 189.682C141.58 189.682 141.451 189.629 141.355 189.533C141.26 189.438 141.207 189.309 141.207 189.175V164.52C141.207 164.386 141.26 164.257 141.355 164.161C141.451 164.066 141.58 164.013 141.714 164.013H264.286C264.42 164.013 264.549 164.066 264.645 164.161C264.74 164.257 264.793 164.386 264.793 164.52V189.175C264.793 189.309 264.74 189.438 264.645 189.533C264.549 189.629 264.42 189.682 264.286 189.682Z" fill="#D1D3D4"/>
<path d="M328.18 253.84H281.236L287.306 216.529H322.11L328.18 253.84Z" fill="white"/>
<path d="M328.18 254.348H281.236C281.162 254.349 281.088 254.334 281.02 254.304C280.952 254.274 280.89 254.23 280.84 254.175C280.795 254.117 280.761 254.05 280.742 253.979C280.723 253.907 280.718 253.832 280.729 253.759L286.819 216.448C286.84 216.328 286.903 216.221 286.995 216.143C287.088 216.065 287.205 216.022 287.326 216.021H322.131C322.252 216.022 322.369 216.065 322.461 216.143C322.554 216.221 322.617 216.328 322.638 216.448L328.728 253.759C328.74 253.833 328.735 253.909 328.714 253.981C328.693 254.053 328.656 254.119 328.606 254.175C328.554 254.236 328.488 254.284 328.414 254.314C328.34 254.344 328.26 254.355 328.18 254.348ZM281.825 253.333H327.591L321.684 217.036H287.732L281.825 253.333Z" fill="#231F20"/>
<path d="M294.167 222.02H294.086C293.954 221.995 293.836 221.92 293.759 221.81C293.681 221.7 293.649 221.564 293.67 221.431C293.772 220.822 296.238 206.379 304.713 206.379C313.188 206.379 315.645 220.822 315.746 221.431C315.767 221.564 315.735 221.7 315.658 221.81C315.58 221.92 315.462 221.995 315.33 222.02C315.197 222.041 315.061 222.009 314.951 221.931C314.842 221.854 314.766 221.736 314.741 221.604C314.741 221.462 312.316 207.394 304.713 207.394C297.111 207.394 294.695 221.462 294.675 221.604C294.651 221.721 294.588 221.827 294.496 221.903C294.403 221.979 294.287 222.02 294.167 222.02Z" fill="#231F20"/>
<path d="M295.548 256.936H263.23L267.402 231.246H291.366L295.548 256.936Z" fill="white"/>
<path d="M295.548 257.443H263.23C263.157 257.441 263.085 257.424 263.019 257.392C262.953 257.361 262.895 257.316 262.847 257.261C262.799 257.205 262.764 257.141 262.742 257.071C262.721 257.001 262.714 256.927 262.723 256.855L266.945 231.155C266.962 231.036 267.022 230.927 267.114 230.848C267.205 230.77 267.322 230.727 267.442 230.729H291.406C291.527 230.727 291.644 230.77 291.735 230.848C291.827 230.927 291.887 231.036 291.904 231.155L296.086 256.834C296.097 256.907 296.093 256.981 296.074 257.051C296.054 257.122 296.02 257.187 295.972 257.243C295.925 257.299 295.866 257.344 295.8 257.375C295.734 257.406 295.661 257.423 295.588 257.423L295.548 257.443ZM263.829 256.428H294.949L290.94 231.764H267.838L263.829 256.428Z" fill="#231F20"/>
<path d="M286.636 235.215C286.516 235.214 286.4 235.171 286.309 235.093C286.218 235.015 286.158 234.907 286.139 234.789C286.139 234.687 284.494 225.146 279.389 225.146C274.283 225.146 272.649 234.687 272.629 234.789C272.607 234.92 272.533 235.038 272.425 235.115C272.317 235.193 272.182 235.225 272.05 235.205C271.985 235.195 271.922 235.172 271.865 235.138C271.808 235.103 271.759 235.057 271.72 235.003C271.682 234.949 271.654 234.888 271.639 234.824C271.624 234.759 271.623 234.692 271.634 234.626C271.705 234.2 273.421 224.131 279.389 224.131C285.357 224.131 287.072 234.2 287.144 234.626C287.154 234.692 287.151 234.76 287.135 234.824C287.119 234.889 287.09 234.95 287.05 235.004C287.011 235.058 286.961 235.103 286.904 235.138C286.847 235.172 286.783 235.195 286.717 235.205L286.636 235.215Z" fill="#231F20"/>
<path d="M258.48 131.482H194.728C194.593 131.482 194.464 131.429 194.369 131.333C194.274 131.238 194.22 131.109 194.22 130.975C194.223 130.841 194.277 130.713 194.372 130.619C194.466 130.524 194.594 130.47 194.728 130.467H258.48C258.614 130.47 258.741 130.524 258.836 130.619C258.93 130.713 258.985 130.841 258.987 130.975C258.987 131.109 258.934 131.238 258.839 131.333C258.744 131.429 258.614 131.482 258.48 131.482Z" fill="#D1D3D4"/>
<path d="M258.48 138.526H194.728C194.593 138.526 194.464 138.473 194.369 138.377C194.274 138.282 194.22 138.153 194.22 138.019C194.223 137.885 194.277 137.757 194.372 137.663C194.466 137.568 194.594 137.514 194.728 137.511H258.48C258.614 137.514 258.741 137.568 258.836 137.663C258.93 137.757 258.985 137.885 258.987 138.019C258.987 138.153 258.934 138.282 258.839 138.377C258.744 138.473 258.614 138.526 258.48 138.526Z" fill="#D1D3D4"/>
<path d="M180 189.682H179.899C179.834 189.67 179.772 189.645 179.717 189.609C179.662 189.572 179.614 189.526 179.577 189.471C179.54 189.416 179.515 189.354 179.502 189.29C179.489 189.225 179.49 189.158 179.503 189.093L180.751 182.811C180.767 182.726 180.804 182.647 180.859 182.581C180.914 182.516 180.985 182.465 181.066 182.435C181.147 182.406 181.233 182.398 181.318 182.41C181.403 182.423 181.484 182.456 181.553 182.506L184.598 184.78L188.607 180.304C186.907 178.125 185.007 176.11 182.933 174.285C181.152 172.741 179.115 171.518 176.915 170.671C174.548 171.794 171.962 172.377 169.343 172.377C166.723 172.377 164.137 171.794 161.771 170.671C159.989 171.386 158.262 172.231 156.604 173.199C154.149 174.796 152.055 176.887 150.453 179.339L153.732 183.744L157.406 182.009C157.476 181.974 157.552 181.956 157.63 181.956C157.707 181.956 157.784 181.974 157.853 182.009C157.923 182.046 157.984 182.1 158.03 182.165C158.076 182.23 158.105 182.305 158.117 182.384L159.132 189.104C159.152 189.235 159.12 189.37 159.042 189.478C158.964 189.586 158.847 189.66 158.716 189.682C158.582 189.7 158.446 189.666 158.336 189.586C158.227 189.507 158.152 189.389 158.127 189.256L157.193 183.166L153.762 184.79C153.656 184.84 153.535 184.852 153.421 184.824C153.307 184.797 153.205 184.731 153.133 184.638L149.398 179.563C149.338 179.48 149.306 179.38 149.306 179.278C149.306 179.176 149.338 179.077 149.398 178.994C149.52 178.801 152.331 174.335 156.107 172.224C157.876 171.164 159.738 170.267 161.669 169.545C161.743 169.519 161.822 169.511 161.9 169.521C161.977 169.532 162.051 169.561 162.116 169.605C162.116 169.605 164.623 171.27 169.332 171.27C174.042 171.27 176.539 169.626 176.559 169.605C176.622 169.562 176.694 169.533 176.77 169.521C176.845 169.509 176.922 169.513 176.996 169.534C179.419 170.402 181.657 171.717 183.593 173.412C185.832 175.379 187.872 177.562 189.683 179.928C189.757 180.02 189.798 180.135 189.798 180.253C189.798 180.371 189.757 180.486 189.683 180.578L185.085 185.713C184.998 185.807 184.88 185.865 184.753 185.878C184.627 185.891 184.499 185.858 184.395 185.785L181.644 183.755L180.548 189.236C180.542 189.301 180.523 189.364 180.492 189.422C180.461 189.48 180.418 189.532 180.367 189.573C180.316 189.615 180.258 189.646 180.195 189.664C180.132 189.683 180.065 189.689 180 189.682Z" fill="#D1D3D4"/>
<path d="M168.49 177.137C163.415 177.137 161.456 170.529 161.385 170.245C161.35 170.114 161.368 169.976 161.435 169.858C161.501 169.74 161.611 169.653 161.74 169.616C161.869 169.581 162.007 169.597 162.124 169.661C162.242 169.726 162.33 169.833 162.369 169.961C162.369 170.022 164.186 176.051 168.459 176.122C173.21 176.122 176.356 169.94 176.387 169.879C176.416 169.819 176.457 169.766 176.507 169.721C176.557 169.677 176.615 169.643 176.678 169.622C176.741 169.6 176.808 169.591 176.875 169.595C176.942 169.599 177.007 169.617 177.067 169.646C177.184 169.709 177.273 169.815 177.315 169.941C177.356 170.068 177.347 170.206 177.29 170.326C177.158 170.61 173.839 177.137 168.49 177.137Z" fill="#D1D3D4"/>
<path d="M255.222 143.51H237.114C235.315 143.51 233.856 144.968 233.856 146.768V146.778C233.856 148.577 235.315 150.036 237.114 150.036H255.222C257.021 150.036 258.48 148.577 258.48 146.778V146.768C258.48 144.968 257.021 143.51 255.222 143.51Z" fill="#D1D3D4"/>
<path d="M258.48 176.071H194.728C194.593 176.071 194.464 176.017 194.369 175.922C194.274 175.827 194.22 175.698 194.22 175.563C194.223 175.43 194.277 175.302 194.372 175.207C194.466 175.113 194.594 175.059 194.728 175.056H258.48C258.614 175.059 258.741 175.113 258.836 175.207C258.93 175.302 258.985 175.43 258.987 175.563C258.987 175.698 258.934 175.827 258.839 175.922C258.744 176.017 258.614 176.071 258.48 176.071Z" fill="#D1D3D4"/>
<path d="M246.168 183.115H194.728C194.593 183.115 194.464 183.062 194.369 182.966C194.274 182.871 194.22 182.742 194.22 182.608C194.223 182.474 194.277 182.346 194.372 182.252C194.466 182.157 194.594 182.103 194.728 182.1H246.168C246.302 182.103 246.429 182.157 246.524 182.252C246.619 182.346 246.673 182.474 246.675 182.608C246.675 182.742 246.622 182.871 246.527 182.966C246.432 183.062 246.303 183.115 246.168 183.115Z" fill="#D1D3D4"/>
<path d="M182.538 152.574H169.952C169.826 152.574 169.706 152.527 169.614 152.443C169.521 152.358 169.464 152.242 169.454 152.117L168.784 145.844L167.688 152.158C167.669 152.275 167.608 152.381 167.517 152.458C167.425 152.534 167.31 152.575 167.191 152.574H155.397C155.324 152.573 155.252 152.557 155.186 152.528C155.119 152.498 155.06 152.455 155.011 152.401C154.963 152.348 154.928 152.285 154.907 152.217C154.886 152.148 154.88 152.076 154.889 152.005L157.66 128.884C157.675 128.76 157.735 128.646 157.829 128.564C157.922 128.481 158.043 128.436 158.167 128.437H179.807C179.931 128.438 180.051 128.484 180.144 128.566C180.237 128.648 180.298 128.761 180.315 128.884L183.045 151.985C183.054 152.056 183.048 152.128 183.027 152.196C183.006 152.265 182.971 152.328 182.923 152.381C182.876 152.438 182.818 152.485 182.751 152.518C182.685 152.552 182.612 152.571 182.538 152.574ZM170.358 151.559H181.918L179.31 129.452H158.614L155.965 151.559H166.754L168.399 142.099C168.42 141.98 168.483 141.872 168.575 141.794C168.668 141.716 168.785 141.673 168.906 141.673C169.029 141.677 169.146 141.726 169.235 141.81C169.325 141.894 169.381 142.007 169.393 142.129L170.358 151.559Z" fill="#D1D3D4"/>
<path d="M180.01 133.157H157.68C157.546 133.157 157.417 133.103 157.321 133.008C157.226 132.913 157.173 132.784 157.173 132.649C157.173 132.515 157.226 132.386 157.321 132.29C157.417 132.195 157.546 132.142 157.68 132.142H180.01C180.145 132.142 180.274 132.195 180.369 132.29C180.464 132.386 180.518 132.515 180.518 132.649C180.515 132.783 180.461 132.911 180.366 133.005C180.272 133.1 180.144 133.154 180.01 133.157Z" fill="#D1D3D4"/>
<path d="M171.535 136.039C171.435 136.038 171.338 136.007 171.255 135.951C171.172 135.895 171.107 135.817 171.068 135.725L169.505 131.685L167.252 135.451C167.179 135.563 167.066 135.643 166.936 135.675C166.805 135.707 166.668 135.689 166.551 135.623C166.494 135.589 166.444 135.543 166.404 135.489C166.364 135.435 166.335 135.374 166.319 135.309C166.303 135.244 166.3 135.176 166.31 135.11C166.32 135.044 166.344 134.98 166.379 134.923L169.15 130.294C169.195 130.21 169.264 130.141 169.35 130.097C169.435 130.054 169.532 130.038 169.627 130.051C169.722 130.057 169.813 130.09 169.89 130.146C169.967 130.201 170.027 130.277 170.063 130.366L172.093 135.359C172.118 135.421 172.13 135.488 172.129 135.554C172.128 135.621 172.114 135.687 172.088 135.748C172.061 135.809 172.023 135.865 171.975 135.911C171.928 135.958 171.871 135.994 171.809 136.019C171.723 136.057 171.626 136.064 171.535 136.039Z" fill="#D1D3D4"/>
<path d="M175.159 186.322C174.609 186.322 174.071 186.159 173.613 185.854C173.156 185.548 172.8 185.114 172.589 184.606C172.379 184.097 172.324 183.538 172.431 182.999C172.538 182.459 172.803 181.964 173.192 181.575C173.581 181.186 174.076 180.921 174.616 180.814C175.155 180.706 175.715 180.761 176.223 180.972C176.731 181.182 177.165 181.539 177.471 181.996C177.777 182.454 177.94 182.991 177.94 183.541C177.94 183.907 177.868 184.268 177.728 184.606C177.588 184.943 177.383 185.25 177.125 185.508C176.867 185.766 176.56 185.971 176.223 186.111C175.885 186.251 175.524 186.322 175.159 186.322ZM175.159 181.775C174.809 181.775 174.468 181.879 174.177 182.073C173.887 182.267 173.661 182.543 173.527 182.866C173.393 183.188 173.358 183.543 173.426 183.886C173.495 184.228 173.663 184.543 173.91 184.79C174.157 185.037 174.471 185.205 174.814 185.274C175.157 185.342 175.512 185.307 175.834 185.173C176.157 185.039 176.433 184.813 176.627 184.523C176.821 184.232 176.925 183.891 176.925 183.541C176.925 183.309 176.879 183.08 176.79 182.866C176.701 182.651 176.571 182.457 176.407 182.293C176.243 182.129 176.049 181.998 175.834 181.91C175.62 181.821 175.39 181.775 175.159 181.775Z" fill="#D1D3D4"/>
<path d="M207.73 85.9288C224.153 143.51 205.7 170.103 198.808 190.474H98.5869V90.5471L207.73 85.9288Z" fill="white"/>
<path d="M198.808 190.931H98.5869C98.5256 190.931 98.4649 190.919 98.4082 190.895C98.3516 190.872 98.3001 190.837 98.2567 190.794C98.2134 190.75 98.179 190.699 98.1555 190.642C98.1321 190.586 98.12 190.525 98.12 190.464V90.5471C98.1186 90.4871 98.1291 90.4274 98.1508 90.3715C98.1726 90.3156 98.2051 90.2645 98.2466 90.2211C98.288 90.1778 98.3376 90.143 98.3926 90.1188C98.4475 90.0946 98.5066 90.0815 98.5666 90.0802L207.71 85.4619C207.814 85.4473 207.921 85.4741 208.006 85.5366C208.091 85.5992 208.149 85.6926 208.166 85.7969C222.021 134.314 211.161 160.907 203.233 180.283C201.751 183.927 200.341 187.388 199.244 190.616C199.214 190.708 199.156 190.788 199.077 190.844C198.999 190.901 198.905 190.931 198.808 190.931ZM99.0436 189.997H198.514C199.6 186.82 200.97 183.47 202.421 179.928C210.277 160.704 221.026 134.395 207.415 86.4059L99.0436 90.9937V189.997Z" fill="#231F20"/>
<path d="M184.649 186.322C184.584 186.324 184.521 186.313 184.461 186.288C184.402 186.264 184.348 186.227 184.304 186.18C184.256 186.133 184.218 186.077 184.193 186.015C184.167 185.953 184.154 185.887 184.154 185.82C184.154 185.753 184.167 185.687 184.193 185.625C184.218 185.563 184.256 185.507 184.304 185.46C193.771 174.661 200.091 161.471 202.574 147.326C202.585 147.26 202.609 147.197 202.644 147.141C202.68 147.085 202.727 147.036 202.782 146.998C202.837 146.96 202.899 146.934 202.964 146.921C203.03 146.907 203.097 146.907 203.162 146.92C203.294 146.943 203.411 147.016 203.489 147.124C203.567 147.232 203.599 147.367 203.579 147.499C201.051 161.847 194.629 175.224 185.014 186.17C184.917 186.267 184.786 186.322 184.649 186.322Z" fill="#D1D3D4"/>
<path d="M208.562 88.4257C208.644 90.202 182.294 130.538 207.192 190.464H304.703V90.5471L208.562 88.4257Z" fill="white"/>
<path d="M304.713 190.931H207.192C207.099 190.93 207.009 190.902 206.933 190.85C206.857 190.797 206.798 190.723 206.766 190.636C196.697 166.398 188.597 129.33 207.222 90.3846C207.555 89.7267 207.847 89.0488 208.095 88.3546C208.094 88.2944 208.105 88.2346 208.128 88.1788C208.151 88.1229 208.184 88.0723 208.227 88.0298C208.274 87.9873 208.328 87.9547 208.387 87.9337C208.447 87.9128 208.51 87.9041 208.572 87.908L304.713 90.07C304.835 90.0726 304.951 90.123 305.037 90.2103C305.122 90.2976 305.17 90.4148 305.17 90.5369V190.453C305.171 190.515 305.16 190.576 305.138 190.633C305.116 190.69 305.083 190.742 305.04 190.787C304.998 190.831 304.947 190.866 304.891 190.891C304.835 190.916 304.774 190.929 304.713 190.931ZM207.507 189.997H304.246V91.0038L208.917 88.8926C208.785 89.2478 208.522 89.8061 208.055 90.7805C189.653 129.269 197.56 165.931 207.507 189.997Z" fill="#231F20"/>
<path d="M222.092 183.115C221.984 183.114 221.879 183.079 221.792 183.016C221.704 182.952 221.639 182.863 221.605 182.76C219.24 174.802 221.544 170.072 221.605 169.879C221.651 169.788 221.722 169.713 221.811 169.662C221.899 169.612 222.001 169.588 222.102 169.595C222.203 169.606 222.299 169.646 222.377 169.711C222.454 169.776 222.511 169.863 222.539 169.961C224.311 174.895 227.579 179.153 231.887 182.141C231.998 182.215 232.076 182.33 232.102 182.462C232.129 182.593 232.103 182.729 232.029 182.841C231.953 182.953 231.836 183.031 231.703 183.057C231.57 183.084 231.432 183.057 231.319 182.983C227.195 180.147 223.98 176.177 222.062 171.554C221.207 175.148 221.372 178.91 222.539 182.415C222.577 182.543 222.563 182.68 222.5 182.798C222.438 182.916 222.331 183.004 222.204 183.044C222.171 183.074 222.133 183.098 222.092 183.115Z" fill="#D1D3D4"/>
<path d="M95.7449 56.5344L69.3245 85.9288H88.4166L111.061 56.5344H95.7449Z" fill="white"/>
<path d="M88.4167 86.3856H69.3245C69.2346 86.3858 69.1466 86.36 69.071 86.3114C68.9953 86.2628 68.9354 86.1934 68.8982 86.1115C68.864 86.0293 68.8535 85.9391 68.8678 85.8512C68.8822 85.7633 68.9208 85.6812 68.9794 85.6142L95.41 56.2299C95.452 56.179 95.5047 56.1381 95.5644 56.11C95.624 56.0819 95.6892 56.0674 95.7551 56.0675H111.071C111.159 56.0671 111.244 56.0918 111.318 56.1385C111.392 56.1853 111.451 56.2522 111.488 56.3314C111.535 56.4039 111.56 56.4885 111.56 56.575C111.56 56.6615 111.535 56.7461 111.488 56.8186L88.8531 86.2536C88.7972 86.3103 88.7279 86.3521 88.6517 86.3751C88.5755 86.3981 88.4947 86.4017 88.4167 86.3856ZM70.3598 85.4619H88.1934L110.117 57.0419H95.9074L70.3598 85.4619Z" fill="#231F20"/>
<path d="M111.061 56.5344L88.4167 85.9288H107.519L126.388 56.5344H111.061Z" fill="#4C58BE"/>
<path d="M107.519 86.3856H88.4167C88.3309 86.3846 88.247 86.3605 88.1737 86.3159C88.1005 86.2712 88.0407 86.2076 88.0005 86.1318C87.9587 86.0574 87.9368 85.9735 87.9368 85.8882C87.9368 85.8029 87.9587 85.719 88.0005 85.6446L110.645 56.2096C110.689 56.154 110.744 56.1088 110.807 56.0772C110.871 56.0456 110.94 56.0284 111.011 56.0269H126.337C126.421 56.028 126.502 56.0515 126.573 56.0948C126.645 56.1382 126.703 56.1999 126.743 56.2735C126.782 56.347 126.801 56.4298 126.797 56.5132C126.794 56.5966 126.768 56.6775 126.723 56.7476L107.905 86.1724C107.864 86.2376 107.807 86.2913 107.739 86.3286C107.672 86.3659 107.596 86.3855 107.519 86.3856ZM89.32 85.4619H107.225L125.495 57.0419H111.285L89.32 85.4619Z" fill="#231F20"/>
<path d="M126.388 56.5344L107.519 85.9288H126.611L141.714 56.5344H126.388Z" fill="white"/>
<path d="M126.611 86.3856H107.519C107.437 86.3859 107.356 86.3644 107.284 86.3234C107.213 86.2824 107.154 86.2233 107.113 86.1521C107.07 86.0799 107.047 85.9975 107.047 85.9136C107.047 85.8296 107.07 85.7472 107.113 85.6751L125.982 56.2401C126.025 56.1747 126.084 56.1211 126.153 56.0839C126.222 56.0468 126.299 56.0272 126.378 56.0269H141.704C141.782 56.029 141.858 56.0506 141.925 56.0896C141.993 56.1286 142.049 56.1838 142.09 56.2502C142.13 56.3197 142.151 56.3984 142.151 56.4786C142.151 56.5588 142.13 56.6375 142.09 56.707L126.997 86.142C126.959 86.2122 126.903 86.2714 126.836 86.3141C126.768 86.3567 126.691 86.3813 126.611 86.3856ZM108.341 85.4619H126.307L140.933 57.0419H126.621L108.341 85.4619Z" fill="#231F20"/>
<path d="M141.714 56.5344L126.611 85.9288H145.713L157.031 56.5344H141.714Z" fill="#4C58BE"/>
<path d="M145.713 86.3856H126.611C126.533 86.3853 126.456 86.3657 126.386 86.3286C126.317 86.2914 126.259 86.2377 126.215 86.1724C126.175 86.103 126.154 86.0242 126.154 85.944C126.154 85.8639 126.175 85.7851 126.215 85.7157L141.308 56.2807C141.348 56.2041 141.407 56.14 141.481 56.0952C141.554 56.0504 141.638 56.0268 141.724 56.0269H157.041C157.116 56.0271 157.19 56.0455 157.257 56.0805C157.323 56.1154 157.38 56.1659 157.423 56.2277C157.466 56.2895 157.493 56.3607 157.503 56.4353C157.512 56.5099 157.503 56.5857 157.477 56.6562L146.16 86.0912C146.129 86.1829 146.068 86.2615 145.987 86.3148C145.906 86.3681 145.81 86.393 145.713 86.3856ZM127.372 85.4619H145.389L156.351 57.0419H141.988L127.372 85.4619Z" fill="#231F20"/>
<path d="M157.031 56.5344L145.713 85.9288H164.806L172.357 56.5344H157.031Z" fill="white"/>
<path d="M164.805 86.3856H145.713C145.637 86.3878 145.562 86.3711 145.494 86.3368C145.426 86.3025 145.368 86.2518 145.324 86.1893C145.281 86.1268 145.254 86.0544 145.246 85.9788C145.237 85.9032 145.248 85.8267 145.277 85.7563L156.594 56.372C156.627 56.2828 156.687 56.2059 156.765 56.1515C156.843 56.0971 156.935 56.0678 157.031 56.0675H172.357C172.428 56.069 172.497 56.0862 172.56 56.1178C172.623 56.1494 172.679 56.1946 172.722 56.2502C172.765 56.3059 172.794 56.3704 172.808 56.4389C172.822 56.5074 172.821 56.5782 172.804 56.6461L165.252 86.0811C165.22 86.1727 165.159 86.2517 165.079 86.3065C164.998 86.3612 164.903 86.3889 164.805 86.3856ZM146.383 85.4619H164.43L171.738 57.0419H157.325L146.383 85.4619Z" fill="#231F20"/>
<path d="M172.357 56.5344L164.806 85.9288H183.908L187.674 56.5344H172.357Z" fill="#4C58BE"/>
<path d="M183.908 86.3856H164.806C164.736 86.386 164.666 86.3707 164.603 86.3409C164.54 86.311 164.484 86.2673 164.44 86.213C164.396 86.1565 164.365 86.0903 164.351 86.0197C164.337 85.9492 164.34 85.8763 164.359 85.807L171.911 56.4228C171.935 56.3225 171.992 56.2332 172.073 56.169C172.154 56.1047 172.254 56.069 172.357 56.0675H187.674C187.741 56.0686 187.807 56.0836 187.868 56.1115C187.929 56.1395 187.984 56.1798 188.029 56.2299C188.11 56.3335 188.15 56.4638 188.14 56.5953L184.365 86.0303C184.341 86.1331 184.283 86.2247 184.2 86.2895C184.116 86.3542 184.013 86.3882 183.908 86.3856ZM165.445 85.4619H183.532L187.186 57.0419H172.712L165.445 85.4619Z" fill="#231F20"/>
<path d="M187.674 56.5344L183.908 85.9288H203V56.5344H187.674Z" fill="white"/>
<path d="M203 86.3856H183.908C183.841 86.3877 183.775 86.3752 183.713 86.3489C183.652 86.3226 183.597 86.2831 183.553 86.2333C183.471 86.1297 183.431 85.9994 183.441 85.8679L187.217 56.4329C187.229 56.3208 187.283 56.2173 187.367 56.1423C187.452 56.0673 187.561 56.0262 187.673 56.0269H203C203.123 56.0295 203.24 56.0795 203.327 56.1665C203.414 56.2536 203.464 56.3708 203.467 56.4938V85.9288C203.464 86.0509 203.414 86.1671 203.327 86.2524C203.239 86.3378 203.122 86.3856 203 86.3856ZM184.436 85.4619H202.533V57.0419H188.09L184.436 85.4619Z" fill="#231F20"/>
<path d="M203 56.5344V85.9288H222.092L218.327 56.5344H203Z" fill="#4C58BE"/>
<path d="M222.092 86.3856H203C202.878 86.3856 202.761 86.3378 202.674 86.2524C202.586 86.167 202.536 86.0509 202.533 85.9288V56.575C202.536 56.452 202.586 56.3347 202.673 56.2477C202.76 56.1607 202.877 56.1107 203 56.1081H218.327C218.439 56.1074 218.549 56.1485 218.633 56.2235C218.717 56.2984 218.771 56.402 218.783 56.5141L222.559 85.9491C222.569 86.0806 222.529 86.2109 222.448 86.3145C222.396 86.35 222.338 86.3745 222.277 86.3868C222.216 86.399 222.153 86.3986 222.092 86.3856ZM203.467 85.4619H221.564L217.91 57.0419H203.467V85.4619Z" fill="#231F20"/>
<path d="M218.326 56.5344L222.092 85.9288H241.194L233.643 56.5344H218.326Z" fill="white"/>
<path d="M241.194 86.3856H222.092C221.981 86.3866 221.873 86.3469 221.789 86.274C221.705 86.2011 221.65 86.1 221.635 85.9897L217.86 56.5547C217.85 56.4232 217.89 56.2929 217.971 56.1893C218.016 56.1392 218.071 56.0989 218.132 56.071C218.193 56.043 218.259 56.028 218.326 56.0269H233.643C233.746 56.0284 233.846 56.0641 233.927 56.1284C234.008 56.1927 234.065 56.2819 234.089 56.3822L241.641 85.7664C241.66 85.8357 241.663 85.9086 241.649 85.9792C241.635 86.0497 241.604 86.1159 241.56 86.1724C241.52 86.2342 241.466 86.2857 241.403 86.3228C241.339 86.3598 241.268 86.3813 241.194 86.3856ZM222.508 85.4619H240.555L233.247 57.0419H218.854L222.508 85.4619Z" fill="#231F20"/>
<path d="M233.643 56.5344L241.194 85.9288H260.287L248.969 56.5344H233.643Z" fill="#4C58BE"/>
<path d="M260.287 86.3856H241.195C241.092 86.3864 240.993 86.3528 240.912 86.2903C240.831 86.2277 240.773 86.1397 240.748 86.0405L233.196 56.6055C233.179 56.5376 233.178 56.4668 233.192 56.3983C233.206 56.3298 233.235 56.2653 233.278 56.2096C233.321 56.154 233.377 56.1088 233.44 56.0772C233.503 56.0456 233.572 56.0284 233.643 56.0269H248.969C249.065 56.0272 249.157 56.0565 249.235 56.1109C249.313 56.1653 249.373 56.2423 249.406 56.3314L260.723 85.7664C260.752 85.8368 260.763 85.9133 260.754 85.989C260.746 86.0646 260.719 86.137 260.676 86.1995C260.632 86.262 260.574 86.3127 260.506 86.347C260.438 86.3812 260.363 86.398 260.287 86.3957V86.3856ZM241.57 85.4619H259.637L248.675 57.0419H234.262L241.57 85.4619Z" fill="#231F20"/>
<path d="M248.969 56.5344L260.286 85.9288H279.389L264.286 56.5344H248.969Z" fill="white"/>
<path d="M279.389 86.3856H260.287C260.193 86.3885 260.102 86.3614 260.025 86.3085C259.948 86.2555 259.891 86.1794 259.86 86.0912L248.533 56.6562C248.507 56.5857 248.498 56.5099 248.507 56.4353C248.517 56.3607 248.544 56.2895 248.587 56.2277C248.63 56.1659 248.687 56.1154 248.753 56.0805C248.82 56.0455 248.894 56.0271 248.969 56.0269H264.286C264.372 56.0268 264.456 56.0504 264.529 56.0952C264.603 56.14 264.663 56.2041 264.702 56.2807L279.795 85.7157C279.835 85.7851 279.856 85.8639 279.856 85.944C279.856 86.0242 279.835 86.103 279.795 86.1724C279.75 86.2392 279.69 86.2937 279.619 86.331C279.548 86.3682 279.469 86.387 279.389 86.3856ZM260.611 85.4619H278.628L264.012 57.0419H249.69L260.611 85.4619Z" fill="#231F20"/>
<path d="M264.286 56.5344L279.389 85.9288H298.481L279.612 56.5344H264.286Z" fill="#4C58BE"/>
<path d="M298.481 86.3856H279.389C279.304 86.3867 279.22 86.3646 279.147 86.3216C279.074 86.2787 279.013 86.2166 278.973 86.142L263.9 56.7476C263.86 56.6781 263.839 56.5994 263.839 56.5192C263.839 56.439 263.86 56.3602 263.9 56.2908C263.941 56.2244 263.997 56.1692 264.065 56.1302C264.132 56.0912 264.208 56.0696 264.286 56.0675H279.612C279.691 56.0678 279.768 56.0873 279.837 56.1245C279.906 56.1617 279.965 56.2153 280.008 56.2807L298.877 85.7157C298.92 85.7878 298.943 85.8702 298.943 85.9542C298.943 86.0381 298.92 86.1205 298.877 86.1927C298.832 86.2549 298.772 86.3051 298.703 86.3387C298.634 86.3724 298.558 86.3885 298.481 86.3856ZM279.673 85.4619H297.639L279.369 57.0419H265.057L279.673 85.4619Z" fill="#231F20"/>
<path d="M279.612 56.5344L298.481 85.9288H317.583L294.939 56.5344H279.612Z" fill="white"/>
<path d="M317.583 86.3856H298.481C298.404 86.3854 298.328 86.3658 298.261 86.3286C298.193 86.2913 298.137 86.2376 298.095 86.1724L279.227 56.7882C279.181 56.7181 279.155 56.6372 279.152 56.5538C279.149 56.4704 279.167 56.3876 279.207 56.314C279.246 56.2405 279.305 56.1788 279.376 56.1354C279.447 56.0921 279.529 56.0686 279.612 56.0675H294.939C295.009 56.069 295.079 56.0862 295.142 56.1178C295.205 56.1494 295.261 56.1946 295.304 56.2502L317.949 85.6852C317.999 85.7551 318.029 85.8367 318.038 85.9221C318.047 86.0075 318.034 86.0937 318 86.1724C317.954 86.2407 317.892 86.2961 317.819 86.3335C317.747 86.3708 317.665 86.3887 317.583 86.3856ZM298.735 85.4619H316.68L294.746 57.0419H280.536L298.735 85.4619Z" fill="#231F20"/>
<path d="M294.939 56.5344L317.583 85.9288H336.676L310.255 56.5344H294.939Z" fill="#4C58BE"/>
<path d="M336.676 86.3855H317.583C317.512 86.3868 317.441 86.3719 317.376 86.342C317.311 86.3122 317.254 86.2681 317.208 86.213L294.563 56.778C294.518 56.7046 294.495 56.6203 294.495 56.5344C294.495 56.4484 294.518 56.3641 294.563 56.2908C294.599 56.2108 294.658 56.1432 294.732 56.0962C294.806 56.0493 294.892 56.0252 294.979 56.0269H310.296C310.362 56.0268 310.427 56.0413 310.486 56.0694C310.546 56.0975 310.599 56.1384 310.641 56.1893L337.031 85.6243C337.089 85.6913 337.128 85.7735 337.142 85.8614C337.157 85.9493 337.146 86.0394 337.112 86.1216C337.073 86.2032 337.011 86.2716 336.933 86.3184C336.856 86.3653 336.766 86.3886 336.676 86.3855ZM317.807 85.4619H335.64L310.052 57.0419H295.842L317.807 85.4619Z" fill="#231F20"/>
<path d="M69.3245 85.9288H88.4166V102.057C88.4166 104.531 87.4339 106.904 85.6845 108.653C83.9352 110.402 81.5627 111.385 79.0888 111.385H78.6523C76.1784 111.385 73.8058 110.402 72.0565 108.653C70.3072 106.904 69.3245 104.531 69.3245 102.057V85.9288Z" fill="white"/>
<path d="M79.0889 111.852H78.6524C76.0555 111.849 73.5657 110.816 71.7295 108.98C69.8932 107.144 68.8604 104.654 68.8577 102.057V85.9288C68.8603 85.8058 68.9103 85.6885 68.9973 85.6015C69.0843 85.5145 69.2016 85.4645 69.3246 85.4619H88.4167C88.5405 85.4619 88.6593 85.5111 88.7469 85.5987C88.8344 85.6862 88.8836 85.805 88.8836 85.9288V102.057C88.8809 104.654 87.8481 107.144 86.0118 108.98C84.1755 110.816 81.6858 111.849 79.0889 111.852ZM69.7915 86.3856V102.057C69.7942 104.406 70.7286 106.659 72.3897 108.32C74.0509 109.981 76.3032 110.915 78.6524 110.918H79.0889C81.439 110.915 83.6924 109.981 85.3551 108.32C87.0179 106.66 87.9546 104.407 87.96 102.057V86.3856H69.7915Z" fill="#231F20"/>
<path d="M88.4167 85.9288H107.509V102.057C107.509 104.531 106.526 106.904 104.777 108.653C103.028 110.402 100.655 111.385 98.1811 111.385H97.7446C95.2707 111.385 92.8981 110.402 91.1488 108.653C89.3995 106.904 88.4167 104.531 88.4167 102.057V85.9288Z" fill="#4C58BE"/>
<path d="M98.181 111.852H97.7547C95.1578 111.849 92.668 110.816 90.8317 108.98C88.9954 107.144 87.9626 104.654 87.96 102.057V85.9288C87.9599 85.8067 88.0077 85.6895 88.0931 85.6022C88.1785 85.5149 88.2946 85.4646 88.4167 85.4619H107.519C107.641 85.4646 107.757 85.5149 107.843 85.6022C107.928 85.6895 107.976 85.8067 107.976 85.9288V102.057C107.973 104.654 106.94 107.144 105.104 108.98C103.268 110.816 100.778 111.849 98.181 111.852ZM88.8836 86.3856V102.057C88.889 104.407 89.8257 106.66 91.4884 108.32C93.1512 109.981 95.4045 110.915 97.7547 110.918H98.181C100.531 110.915 102.784 109.981 104.447 108.32C106.11 106.66 107.047 104.407 107.052 102.057V86.3856H88.8836Z" fill="#231F20"/>
<path d="M107.519 85.9288H126.611V102.057C126.611 104.531 125.628 106.904 123.879 108.653C122.13 110.402 119.757 111.385 117.283 111.385H116.847C114.373 111.385 112 110.402 110.251 108.653C108.502 106.904 107.519 104.531 107.519 102.057V85.9288Z" fill="white"/>
<path d="M117.283 111.852H116.847C114.25 111.849 111.76 110.816 109.924 108.98C108.087 107.144 107.055 104.654 107.052 102.057V85.9288C107.055 85.8058 107.105 85.6885 107.192 85.6015C107.279 85.5145 107.396 85.4645 107.519 85.4619H126.611C126.734 85.4645 126.851 85.5145 126.938 85.6015C127.025 85.6885 127.075 85.8058 127.078 85.9288V102.057C127.075 104.654 126.042 107.144 124.206 108.98C122.37 110.816 119.88 111.849 117.283 111.852ZM107.976 86.3856V102.057C107.981 104.407 108.918 106.66 110.58 108.32C112.243 109.981 114.497 110.915 116.847 110.918H117.283C119.633 110.915 121.887 109.981 123.549 108.32C125.212 106.66 126.149 104.407 126.154 102.057V86.3856H107.976Z" fill="#231F20"/>
<path d="M126.611 85.9288H145.703V102.057C145.703 104.531 144.72 106.904 142.971 108.653C141.222 110.402 138.849 111.385 136.375 111.385H135.939C133.465 111.385 131.092 110.402 129.343 108.653C127.594 106.904 126.611 104.531 126.611 102.057V85.9288Z" fill="#4C58BE"/>
<path d="M136.375 111.852H135.949C133.352 111.849 130.862 110.816 129.026 108.98C127.19 107.144 126.157 104.654 126.154 102.057V85.9288C126.154 85.8067 126.202 85.6895 126.287 85.6022C126.373 85.5149 126.489 85.4646 126.611 85.4619H145.713C145.835 85.4646 145.952 85.5149 146.037 85.6022C146.122 85.6895 146.17 85.8067 146.17 85.9288V102.057C146.167 104.654 145.135 107.144 143.298 108.98C141.462 110.816 138.972 111.849 136.375 111.852ZM127.078 86.3856V102.057C127.083 104.407 128.02 106.66 129.683 108.32C131.346 109.981 133.599 110.915 135.949 110.918H136.375C138.726 110.915 140.979 109.981 142.642 108.32C144.304 106.66 145.241 104.407 145.246 102.057V86.3856H127.078Z" fill="#231F20"/>
<path d="M145.713 85.9288H164.806V102.057C164.806 104.531 163.823 106.904 162.073 108.653C160.324 110.402 157.952 111.385 155.478 111.385H155.041C152.567 111.385 150.195 110.402 148.445 108.653C146.696 106.904 145.713 104.531 145.713 102.057V85.9288Z" fill="white"/>
<path d="M155.478 111.852H155.041C152.444 111.849 149.955 110.816 148.118 108.98C146.282 107.144 145.249 104.654 145.247 102.057V85.9288C145.247 85.805 145.296 85.6862 145.383 85.5987C145.471 85.5111 145.59 85.4619 145.713 85.4619H164.806C164.929 85.4645 165.046 85.5145 165.133 85.6015C165.22 85.6885 165.27 85.8058 165.273 85.9288V102.057C165.27 104.654 164.237 107.144 162.401 108.98C160.564 110.816 158.075 111.849 155.478 111.852ZM146.16 86.3856V102.057C146.165 104.407 147.102 106.66 148.765 108.32C150.428 109.981 152.681 110.915 155.031 110.918H155.468C157.817 110.915 160.069 109.981 161.73 108.32C163.391 106.659 164.326 104.406 164.329 102.057V86.3856H146.16Z" fill="#231F20"/>
<path d="M164.806 85.9288H183.898V102.057C183.898 104.529 182.916 106.9 181.169 108.649C179.422 110.398 177.052 111.382 174.58 111.385H174.144C171.67 111.385 169.297 110.402 167.548 108.653C165.799 106.904 164.816 104.531 164.816 102.057V85.9288H164.806Z" fill="#4C58BE"/>
<path d="M174.58 111.852H174.154C171.555 111.852 169.063 110.82 167.224 108.984C165.386 107.147 164.352 104.656 164.349 102.057V85.9288C164.351 85.8058 164.401 85.6885 164.488 85.6015C164.576 85.5145 164.693 85.4645 164.816 85.4619H183.918C184.04 85.4646 184.156 85.5149 184.242 85.6022C184.327 85.6895 184.375 85.8067 184.375 85.9288V102.057C184.372 104.654 183.339 107.144 181.503 108.98C179.667 110.816 177.177 111.849 174.58 111.852ZM165.283 86.3856V102.057C165.288 104.407 166.225 106.66 167.888 108.32C169.55 109.981 171.804 110.915 174.154 110.918H174.58C176.93 110.915 179.184 109.981 180.846 108.32C182.509 106.66 183.446 104.407 183.451 102.057V86.3856H165.283Z" fill="#231F20"/>
<path d="M183.908 85.9288H203V102.057C203 104.531 202.017 106.904 200.268 108.653C198.519 110.402 196.146 111.385 193.672 111.385H193.236C190.762 111.385 188.389 110.402 186.64 108.653C184.891 106.904 183.908 104.531 183.908 102.057V85.9288Z" fill="white"/>
<path d="M193.672 111.852H193.236C190.639 111.849 188.149 110.816 186.313 108.98C184.476 107.144 183.444 104.654 183.441 102.057V85.9288C183.441 85.805 183.49 85.6862 183.578 85.5987C183.665 85.5111 183.784 85.4619 183.908 85.4619H203C203.123 85.4645 203.24 85.5145 203.327 85.6015C203.414 85.6885 203.464 85.8058 203.467 85.9288V102.057C203.464 104.654 202.431 107.144 200.595 108.98C198.759 110.816 196.269 111.849 193.672 111.852ZM184.365 86.3856V102.057C184.37 104.407 185.307 106.66 186.969 108.32C188.632 109.981 190.885 110.915 193.236 110.918H193.672C196.021 110.915 198.274 109.981 199.935 108.32C201.596 106.659 202.53 104.406 202.533 102.057V86.3856H184.365Z" fill="#231F20"/>
<path d="M203 85.9288H222.092V102.057C222.092 104.531 221.109 106.904 219.36 108.653C217.611 110.402 215.238 111.385 212.764 111.385H212.328C209.854 111.385 207.481 110.402 205.732 108.653C203.983 106.904 203 104.531 203 102.057V85.9288Z" fill="#4C58BE"/>
<path d="M212.764 111.852H212.328C209.731 111.849 207.241 110.816 205.405 108.98C203.569 107.144 202.536 104.654 202.533 102.057V85.9288C202.536 85.8058 202.586 85.6885 202.673 85.6015C202.76 85.5145 202.877 85.4645 203 85.4619H222.092C222.216 85.4619 222.335 85.5111 222.422 85.5987C222.51 85.6862 222.559 85.805 222.559 85.9288V102.057C222.556 104.654 221.524 107.144 219.687 108.98C217.851 110.816 215.361 111.849 212.764 111.852ZM203.467 86.3856V102.057C203.47 104.406 204.404 106.659 206.065 108.32C207.726 109.981 209.979 110.915 212.328 110.918H212.764C215.115 110.915 217.368 109.981 219.031 108.32C220.693 106.66 221.63 104.407 221.636 102.057V86.3856H203.467Z" fill="#231F20"/>
<path d="M222.092 85.9288H241.184V102.057C241.184 104.531 240.201 106.904 238.452 108.653C236.703 110.402 234.33 111.385 231.856 111.385H231.42C228.946 111.385 226.573 110.402 224.824 108.653C223.075 106.904 222.092 104.531 222.092 102.057V85.9288Z" fill="white"/>
<path d="M231.856 111.852H231.42C228.823 111.849 226.333 110.816 224.497 108.98C222.661 107.144 221.628 104.654 221.625 102.057V85.9288C221.625 85.8067 221.673 85.6895 221.758 85.6022C221.844 85.5149 221.96 85.4646 222.082 85.4619H241.184C241.307 85.4645 241.425 85.5145 241.512 85.6015C241.599 85.6885 241.649 85.8058 241.651 85.9288V102.057C241.649 104.654 240.616 107.144 238.779 108.98C236.943 110.816 234.453 111.849 231.856 111.852ZM222.559 86.3856V102.057C222.564 104.407 223.501 106.66 225.164 108.32C226.827 109.981 229.08 110.915 231.43 110.918H231.856C234.207 110.915 236.46 109.981 238.123 108.32C239.785 106.66 240.722 104.407 240.728 102.057V86.3856H222.559Z" fill="#231F20"/>
<path d="M241.194 85.9288H260.286V102.057C260.286 104.531 259.304 106.904 257.554 108.653C255.805 110.402 253.433 111.385 250.959 111.385H250.522C248.048 111.385 245.676 110.402 243.926 108.653C242.177 106.904 241.194 104.531 241.194 102.057V85.9288Z" fill="#4C58BE"/>
<path d="M250.959 111.852H250.522C247.925 111.849 245.436 110.816 243.599 108.98C241.763 107.144 240.73 104.654 240.728 102.057V85.9288C240.73 85.8058 240.78 85.6885 240.867 85.6015C240.954 85.5145 241.071 85.4645 241.194 85.4619H260.287C260.41 85.4619 260.529 85.5111 260.617 85.5987C260.704 85.6862 260.753 85.805 260.753 85.9288V102.057C260.751 104.654 259.718 107.144 257.882 108.98C256.045 110.816 253.556 111.849 250.959 111.852ZM241.661 86.3856V102.057C241.664 104.406 242.598 106.659 244.26 108.32C245.921 109.981 248.173 110.915 250.522 110.918H250.959C253.311 110.918 255.567 109.985 257.232 108.324C258.897 106.663 259.835 104.409 259.84 102.057V86.3856H241.661Z" fill="#231F20"/>
<path d="M260.287 85.9288H279.379V102.057C279.379 104.531 278.396 106.904 276.647 108.653C274.897 110.402 272.525 111.385 270.051 111.385H269.614C267.141 111.385 264.768 110.402 263.019 108.653C261.269 106.904 260.287 104.531 260.287 102.057V85.9288Z" fill="white"/>
<path d="M270.051 111.852H269.625C267.03 111.847 264.542 110.813 262.708 108.977C260.874 107.141 259.843 104.652 259.84 102.057V85.9288C259.84 85.8067 259.888 85.6895 259.973 85.6022C260.059 85.5149 260.175 85.4646 260.297 85.4619H279.399C279.521 85.4646 279.637 85.5149 279.723 85.6022C279.808 85.6895 279.856 85.8067 279.856 85.9288V102.057C279.853 104.656 278.819 107.147 276.981 108.984C275.142 110.82 272.65 111.852 270.051 111.852ZM260.754 86.3856V102.057C260.759 104.407 261.696 106.66 263.358 108.32C265.021 109.981 267.275 110.915 269.625 110.918H270.051C272.401 110.915 274.654 109.981 276.317 108.32C277.98 106.66 278.917 104.407 278.922 102.057V86.3856H260.754Z" fill="#231F20"/>
<path d="M279.389 85.9288H298.481V102.057C298.481 104.531 297.498 106.904 295.749 108.653C294 110.402 291.627 111.385 289.153 111.385H288.717C286.243 111.385 283.87 110.402 282.121 108.653C280.372 106.904 279.389 104.531 279.389 102.057V85.9288Z" fill="#4C58BE"/>
<path d="M289.153 111.852H288.717C286.12 111.849 283.63 110.816 281.794 108.98C279.957 107.144 278.925 104.654 278.922 102.057V85.9288C278.924 85.8058 278.975 85.6885 279.062 85.6015C279.149 85.5145 279.266 85.4645 279.389 85.4619H298.481C298.604 85.4645 298.721 85.5145 298.808 85.6015C298.895 85.6885 298.945 85.8058 298.948 85.9288V102.057C298.945 104.654 297.912 107.144 296.076 108.98C294.24 110.816 291.75 111.849 289.153 111.852ZM279.846 86.3856V102.057C279.851 104.407 280.788 106.66 282.45 108.32C284.113 109.981 286.366 110.915 288.717 110.918H289.153C291.502 110.915 293.755 109.981 295.416 108.32C297.077 106.659 298.011 104.406 298.014 102.057V86.3856H279.846Z" fill="#231F20"/>
<path d="M298.481 85.9288H317.573V102.057C317.573 104.531 316.59 106.904 314.841 108.653C313.092 110.402 310.719 111.385 308.245 111.385H307.809C305.335 111.385 302.962 110.402 301.213 108.653C299.464 106.904 298.481 104.531 298.481 102.057V85.9288Z" fill="white"/>
<path d="M308.245 111.852H307.819C305.22 111.852 302.728 110.82 300.89 108.984C299.051 107.147 298.017 104.656 298.014 102.057V85.9288C298.017 85.8058 298.067 85.6885 298.154 85.6015C298.241 85.5145 298.358 85.4645 298.481 85.4619H317.583C317.705 85.4646 317.822 85.5149 317.907 85.6022C317.992 85.6895 318.04 85.8067 318.04 85.9288V102.057C318.037 104.654 317.005 107.144 315.168 108.98C313.332 110.816 310.842 111.849 308.245 111.852ZM298.948 86.3856V102.057C298.953 104.407 299.89 106.66 301.553 108.32C303.216 109.981 305.469 110.915 307.819 110.918H308.245C310.596 110.915 312.849 109.981 314.512 108.32C316.174 106.66 317.111 104.407 317.116 102.057V86.3856H298.948Z" fill="#231F20"/>
<path d="M317.583 85.9288H336.676V102.057C336.676 104.531 335.693 106.904 333.944 108.653C332.194 110.402 329.822 111.385 327.348 111.385H326.911C324.437 111.385 322.065 110.402 320.316 108.653C318.566 106.904 317.583 104.531 317.583 102.057V85.9288Z" fill="#4C58BE"/>
<path d="M327.348 111.852H326.911C324.314 111.849 321.825 110.816 319.988 108.98C318.152 107.144 317.119 104.654 317.116 102.057V85.9288C317.116 85.805 317.166 85.6862 317.253 85.5987C317.341 85.5111 317.46 85.4619 317.583 85.4619H336.676C336.799 85.4645 336.916 85.5145 337.003 85.6015C337.09 85.6885 337.14 85.8058 337.142 85.9288V102.057C337.14 104.654 336.107 107.144 334.271 108.98C332.434 110.816 329.945 111.849 327.348 111.852ZM318.04 86.3856V102.057C318.045 104.407 318.982 106.66 320.645 108.32C322.308 109.981 324.561 110.915 326.911 110.918H327.348C329.697 110.915 331.949 109.981 333.61 108.32C335.271 106.659 336.206 104.406 336.209 102.057V86.3856H318.04Z" fill="#231F20"/>
<path d="M264.286 142.008H141.704V173.879H264.286V142.008Z" fill="white"/>
<path d="M264.286 174.315H141.714C141.59 174.315 141.472 174.266 141.384 174.178C141.296 174.091 141.247 173.972 141.247 173.848V141.977C141.247 141.916 141.259 141.856 141.283 141.8C141.307 141.744 141.341 141.693 141.385 141.651C141.428 141.608 141.48 141.575 141.536 141.552C141.593 141.53 141.653 141.519 141.714 141.52H264.286C264.346 141.519 264.407 141.53 264.464 141.552C264.52 141.575 264.572 141.608 264.615 141.651C264.659 141.693 264.693 141.744 264.717 141.8C264.74 141.856 264.753 141.916 264.753 141.977V173.848C264.753 173.972 264.703 174.091 264.616 174.178C264.528 174.266 264.409 174.315 264.286 174.315ZM142.171 173.381H263.829V142.474H142.171V173.381Z" fill="#231F20"/>
<path d="M257.323 142.474H257.181L203 123.768L148.819 142.454C148.705 142.482 148.585 142.466 148.482 142.41C148.379 142.353 148.302 142.26 148.265 142.148C148.228 142.037 148.234 141.916 148.282 141.809C148.33 141.702 148.417 141.617 148.525 141.571L202.848 122.834C202.947 122.804 203.053 122.804 203.152 122.834L257.475 141.571C257.592 141.61 257.689 141.694 257.744 141.805C257.799 141.915 257.808 142.043 257.77 142.16C257.736 142.252 257.676 142.331 257.596 142.387C257.516 142.444 257.421 142.474 257.323 142.474Z" fill="#231F20"/>
<path d="M203 128.041C205.315 128.041 207.192 126.164 207.192 123.849C207.192 121.534 205.315 119.657 203 119.657C200.685 119.657 198.808 121.534 198.808 123.849C198.808 126.164 200.685 128.041 203 128.041Z" fill="#231F20"/>
<path d="M88.8937 262.691H123.617L119.811 212.317H85.0874L88.8937 262.691Z" fill="#231F20"/>
<path d="M77.678 262.691H112.401L119.811 212.317H85.0875L77.678 262.691Z" fill="white"/>
<path d="M112.401 263.158H77.678C77.6121 263.158 77.5469 263.144 77.4873 263.115C77.4276 263.087 77.3749 263.046 77.3329 262.996C77.2884 262.947 77.2554 262.889 77.236 262.825C77.2167 262.762 77.2117 262.696 77.2213 262.63L84.6308 212.246C84.6434 212.134 84.6974 212.032 84.782 211.959C84.8666 211.885 84.9756 211.846 85.0875 211.85H119.77C119.836 211.851 119.9 211.866 119.96 211.894C120.019 211.922 120.072 211.962 120.115 212.012C120.16 212.061 120.193 212.119 120.212 212.182C120.231 212.245 120.236 212.312 120.227 212.377L112.817 262.762C112.804 262.866 112.755 262.962 112.679 263.034C112.604 263.106 112.505 263.15 112.401 263.158ZM78.216 262.234H111.995L119.273 212.773H85.4935L78.216 262.234Z" fill="#231F20"/>
<path d="M107.275 256.652H83.2301C83.157 256.649 83.0853 256.632 83.0193 256.601C82.9534 256.569 82.8947 256.524 82.847 256.469C82.7993 256.414 82.7636 256.349 82.7422 256.279C82.7208 256.209 82.7141 256.136 82.7226 256.063L88.8125 217.138C88.8298 217.019 88.8897 216.91 88.9811 216.831C89.0726 216.753 89.1894 216.71 89.3099 216.712H113.67C113.743 216.712 113.814 216.728 113.881 216.758C113.947 216.787 114.007 216.83 114.056 216.884C114.101 216.942 114.135 217.009 114.154 217.081C114.173 217.152 114.178 217.227 114.167 217.3L107.692 256.226C107.676 256.331 107.627 256.43 107.553 256.506C107.478 256.583 107.381 256.634 107.275 256.652ZM83.8594 255.637H106.839L113.152 217.727H89.8073L83.8594 255.637Z" fill="#D1D3D4"/>
<path d="M107.702 226.872H92.842C92.7074 226.872 92.5783 226.818 92.4831 226.723C92.3879 226.628 92.3345 226.499 92.3345 226.364C92.3345 226.23 92.3879 226.101 92.4831 226.005C92.5783 225.91 92.7074 225.857 92.842 225.857H107.702C107.836 225.857 107.965 225.91 108.06 226.005C108.156 226.101 108.209 226.23 108.209 226.364C108.206 226.498 108.152 226.626 108.058 226.72C107.963 226.815 107.835 226.869 107.702 226.872Z" fill="#D1D3D4"/>
<path d="M104.809 232.728H91.9792C91.8454 232.726 91.7178 232.671 91.6232 232.577C91.5286 232.482 91.4743 232.355 91.4717 232.221C91.4717 232.086 91.5251 231.957 91.6203 231.862C91.7155 231.767 91.8446 231.713 91.9792 231.713H104.809C104.943 231.713 105.072 231.767 105.168 231.862C105.263 231.957 105.316 232.086 105.316 232.221C105.316 232.355 105.263 232.484 105.168 232.58C105.072 232.675 104.943 232.728 104.809 232.728Z" fill="#D1D3D4"/>
<path d="M105.976 239.011H91.1166C90.982 239.011 90.8529 238.958 90.7578 238.862C90.6626 238.767 90.6091 238.638 90.6091 238.504C90.6091 238.369 90.6626 238.24 90.7578 238.145C90.8529 238.05 90.982 237.996 91.1166 237.996H105.976C106.111 237.996 106.24 238.05 106.335 238.145C106.43 238.24 106.484 238.369 106.484 238.504C106.484 238.638 106.43 238.767 106.335 238.862C106.24 238.958 106.111 239.011 105.976 239.011Z" fill="#D1D3D4"/>
<path d="M103.094 244.868H90.2538C90.1192 244.868 89.9902 244.814 89.895 244.719C89.7998 244.624 89.7463 244.495 89.7463 244.36C89.7489 244.226 89.8032 244.099 89.8979 244.004C89.9925 243.91 90.1201 243.855 90.2538 243.853H103.094C103.227 243.855 103.355 243.91 103.45 244.004C103.544 244.099 103.598 244.226 103.601 244.36C103.601 244.495 103.548 244.624 103.452 244.719C103.357 244.814 103.228 244.868 103.094 244.868Z" fill="#D1D3D4"/>
<path d="M292.168 169.423C292.064 169.421 291.963 169.389 291.878 169.329C291.793 169.269 291.727 169.185 291.691 169.088C288.358 159.067 287.246 148.441 288.433 137.948C288.453 137.813 288.526 137.692 288.635 137.611C288.745 137.53 288.882 137.496 289.016 137.516C289.151 137.536 289.272 137.609 289.353 137.719C289.434 137.828 289.468 137.965 289.448 138.1C288.283 148.43 289.381 158.89 292.665 168.753C292.708 168.881 292.698 169.02 292.64 169.141C292.581 169.263 292.477 169.356 292.35 169.402L292.168 169.423Z" fill="#D1D3D4"/>
<path d="M281.389 184.049C281.31 184.05 281.232 184.032 281.161 183.996C281.09 183.961 281.029 183.909 280.983 183.846C280.83 183.643 266.174 163.211 268.965 116.592C268.964 116.524 268.978 116.456 269.006 116.394C269.034 116.332 269.074 116.276 269.125 116.231C269.176 116.186 269.236 116.152 269.302 116.132C269.367 116.112 269.435 116.106 269.503 116.115C269.57 116.117 269.636 116.134 269.697 116.162C269.758 116.191 269.812 116.232 269.856 116.282C269.901 116.332 269.935 116.391 269.956 116.455C269.977 116.519 269.985 116.586 269.98 116.653C268.528 140.8 271.827 157.618 274.842 167.484C278.11 178.162 281.754 183.196 281.795 183.247C281.873 183.356 281.906 183.49 281.887 183.623C281.868 183.755 281.799 183.875 281.693 183.958C281.603 184.017 281.497 184.049 281.389 184.049Z" fill="#D1D3D4"/>
<path d="M114.989 170.61H114.918C114.784 170.59 114.664 170.518 114.582 170.41C114.5 170.302 114.464 170.166 114.482 170.032C119.263 136.334 110.686 115.313 110.594 115.1C110.548 114.977 110.551 114.841 110.602 114.721C110.654 114.6 110.75 114.504 110.871 114.453C110.992 114.402 111.128 114.399 111.25 114.446C111.373 114.493 111.472 114.585 111.528 114.704C111.62 114.917 120.308 136.181 115.487 170.174C115.47 170.294 115.41 170.404 115.319 170.484C115.228 170.564 115.111 170.609 114.989 170.61Z" fill="#D1D3D4"/>
<path d="M153.854 132.771C153.772 132.772 153.691 132.751 153.62 132.71C153.561 132.679 153.508 132.637 153.465 132.585C153.422 132.533 153.389 132.474 153.37 132.41C153.35 132.345 153.343 132.278 153.349 132.211C153.356 132.144 153.375 132.079 153.407 132.02C158.482 122.52 158.482 115.262 158.482 115.191C158.482 115.057 158.536 114.928 158.631 114.832C158.726 114.737 158.855 114.684 158.99 114.684C159.124 114.684 159.253 114.737 159.349 114.832C159.444 114.928 159.497 115.057 159.497 115.191C159.497 115.496 159.446 122.753 154.26 132.497C154.221 132.573 154.163 132.638 154.092 132.686C154.021 132.734 153.939 132.763 153.854 132.771Z" fill="#D1D3D4"/>
<path d="M117.06 186.322C116.947 186.322 116.837 186.286 116.745 186.221C116.642 186.134 116.577 186.011 116.561 185.877C116.546 185.743 116.583 185.608 116.664 185.5C116.837 185.287 133.584 163.789 131.341 131.015C131.332 130.88 131.376 130.748 131.465 130.646C131.553 130.544 131.678 130.481 131.813 130.472C131.948 130.463 132.08 130.507 132.182 130.596C132.284 130.684 132.347 130.809 132.356 130.944C134.63 164.135 117.639 185.916 117.466 186.14C117.416 186.198 117.353 186.244 117.283 186.276C117.213 186.308 117.137 186.323 117.06 186.322Z" fill="#D1D3D4"/>
<path d="M171.79 152.22H180.196L179.638 154.812H174.184L173.662 157.296H178.342L177.838 159.69H173.158L172.564 162.408H178.18L177.64 165H169.072L171.79 152.22ZM183.961 152.22H187.165L188.749 158.898L193.177 152.22H196.381L193.663 165H190.693L192.331 157.35L188.677 162.912H187.093L185.833 157.35L184.195 165H181.243L183.961 152.22ZM200.615 152.22H205.817C206.477 152.22 207.041 152.394 207.509 152.742C207.989 153.09 208.355 153.54 208.607 154.092C208.859 154.632 208.985 155.208 208.985 155.82C208.985 156.432 208.853 157.038 208.589 157.638C208.337 158.238 207.983 158.784 207.527 159.276C207.071 159.756 206.543 160.146 205.943 160.446C205.355 160.734 204.725 160.878 204.053 160.878H201.713L200.849 165H197.897L200.615 152.22ZM204.413 158.304C204.593 158.304 204.773 158.25 204.953 158.142C205.133 158.034 205.301 157.884 205.457 157.692C205.613 157.5 205.733 157.266 205.817 156.99C205.913 156.714 205.961 156.408 205.961 156.072C205.961 155.784 205.919 155.55 205.835 155.37C205.751 155.178 205.637 155.04 205.493 154.956C205.361 154.86 205.217 154.812 205.061 154.812H203.009L202.271 158.304H204.413ZM215.367 154.812H211.713L212.253 152.22H222.495L221.955 154.812H218.319L216.141 165H213.189L215.367 154.812ZM226.809 160.608L224.361 152.22H227.565L228.807 158.088L232.605 152.22H235.809L229.725 160.644L228.807 165H225.855L226.809 160.608Z" fill="#4C58BE"/>
</svg>
