<svg width="60" height="84" viewBox="0 0 60 84" fill="none" xmlns="http://www.w3.org/2000/svg">
<path d="M53.6234 39.7773L42.9657 29.2221C40.6113 26.8903 36.8123 26.9086 34.4805 29.2631L4.2222 59.8152C1.8904 62.1697 1.90875 65.9686 4.26319 68.3004L14.9209 78.8556C17.2753 81.1874 21.0743 81.1691 23.4061 78.8146L53.6644 48.2625C55.9962 45.9081 55.9779 42.1091 53.6234 39.7773Z" fill="#D9D9D9" fill-opacity="0.5"/>
<path d="M55.6234 14.7773L44.9657 4.22209C42.6113 1.8903 38.8123 1.90865 36.4805 4.26309L6.2222 34.8152C3.8904 37.1697 3.90875 40.9686 6.26319 43.3004L16.9209 53.8556C19.2753 56.1874 23.0743 56.1691 25.4061 53.8146L55.6644 23.2625C57.9962 20.9081 57.9779 17.1091 55.6234 14.7773Z" fill="white"/>
</svg>
