<svg width="114" height="114" viewBox="0 0 114 114" fill="none" xmlns="http://www.w3.org/2000/svg">
<circle cx="57" cy="57" r="49.5" stroke="#0099FF"/>
<circle cx="57" cy="57" r="56" stroke="url(#paint0_linear_22_9)" stroke-opacity="0.75" stroke-width="2"/>
<mask id="mask0_22_9" style="mask-type:alpha" maskUnits="userSpaceOnUse" x="7" y="7" width="100" height="100">
<circle cx="57" cy="57" r="50" fill="#EFF9FF"/>
</mask>
<g mask="url(#mask0_22_9)">
<path fill-rule="evenodd" clip-rule="evenodd" d="M114.423 61.833L113.748 58.6791C113.748 58.6791 111.722 55.2013 109.692 57.7076C106.31 59.8902 102.924 68.057 98.8645 73.0697C96.1569 78.4063 92.7749 80.5888 91.4227 80.265C90.0706 79.9412 88.0441 76.4634 88.7252 67.6491C87.3765 61.3411 88.7354 49.6966 88.0644 40.5585C88.0678 34.5743 86.0413 31.0965 85.3669 27.9425C82.6626 27.2949 81.3105 26.9711 78.6028 32.3077C73.8653 40.1506 69.1243 53.9777 64.3868 61.8206C60.3236 72.8175 56.2638 77.8303 56.945 69.016C56.274 59.8778 60.3439 36.9126 59.6695 33.7586C56.9653 33.111 50.8688 52.5984 46.809 57.6112C44.1014 62.9477 43.4304 53.8096 44.1115 44.9953C42.7628 38.6873 42.7662 32.7031 38.7064 37.7159C35.321 45.8826 29.2245 65.3701 25.1647 70.3828C22.4571 75.7194 21.7861 66.5812 23.145 54.9367C22.474 45.7986 23.8329 34.154 21.8064 30.6763C20.4542 30.3525 17.0688 38.5192 15.0423 35.0414C13.6902 34.7176 13.697 22.7493 12.3448 22.4255C9.64055 21.7779 5.57738 32.7748 0.839829 40.6177C-3.22334 51.6146 -7.96089 59.4576 -7.95751 53.4734C-7.95412 47.4892 -5.91408 27.0304 -5.23294 18.216C-5.90393 9.07788 -7.93382 11.5843 -9.96033 8.10647C-10.6347 4.95249 -11.3057 -4.18566 -9.95018 -9.84602L-10.6246 -13V-13L-9.27242 -12.6762C-9.27242 -12.6762 -6.56815 -12.0286 -5.21602 -11.7048C-2.51175 -11.0572 -1.15961 -10.7334 1.54466 -10.0858C2.89679 -9.76197 5.60106 -9.11436 6.9532 -8.79056C8.30533 -8.46675 11.0096 -7.81914 12.3617 -7.49534C15.066 -6.84773 16.4181 -6.52393 19.1224 -5.87632C20.4745 -5.55252 23.1788 -4.90491 24.531 -4.58111C27.2352 -3.9335 28.5874 -3.6097 29.9395 -3.2859C32.6438 -2.63829 33.9959 -2.31449 36.7002 -1.66688C38.0523 -1.34307 40.7566 -0.695468 42.1087 -0.371664C44.813 0.275943 46.1651 0.599746 47.5172 0.92355C50.2215 1.57116 51.5737 1.89496 54.2779 2.54257C55.6301 2.86637 58.3343 3.51398 59.6865 3.83778C62.3907 4.48539 63.7429 4.80919 66.4471 5.4568C67.7993 5.7806 69.1514 6.10441 71.8557 6.75201C73.2078 7.07582 75.9121 7.72342 77.2642 8.04723C79.9685 8.69483 81.3206 9.01864 84.0249 9.66624C85.377 9.99005 86.7292 10.3139 89.4334 10.9615C90.7856 11.2853 93.4898 11.9329 94.842 12.2567C97.5462 12.9043 98.8984 13.2281 101.603 13.8757C102.955 14.1995 105.659 14.8471 107.011 15.1709C108.363 15.4947 111.068 16.1423 112.42 16.4661C115.124 17.1137 116.476 17.4375 119.18 18.0851C120.533 18.4089 123.237 19.0565 123.237 19.0565L124.589 19.3803L114.423 61.833Z" fill="#6FB6F9"/>
</g>
<defs>
<linearGradient id="paint0_linear_22_9" x1="16" y1="20.5" x2="98.5" y2="97.5" gradientUnits="userSpaceOnUse">
<stop stop-color="#008BE8"/>
<stop offset="1" stop-color="#0099FF" stop-opacity="0.5"/>
</linearGradient>
</defs>
</svg>
